<?xml version="1.0" encoding="UTF-8"?>
<svg width="176px" height="176px" viewBox="0 0 176 176" version="1.1" xmlns="http://www.w3.org/2000/svg" xmlns:xlink="http://www.w3.org/1999/xlink">
    <!-- Generator: Sketch 63.1 (92452) - https://sketch.com -->
    <title>logo</title>
    <desc>Created with Sketch.</desc>
    <g id="Page-1" stroke="none" stroke-width="1" fill="none" fill-rule="evenodd">
        <g id="2019121116502228" fill-rule="nonzero">
            <path d="M62,27.863747 C71.130742,18.5790754 80.1847552,9.23600973 89.3538617,0 C118.060071,29.6350365 147.121151,58.9294404 176,88.3892944 C147.399293,117.547445 118.82736,146.734793 90.3321555,176 C81.1055023,166.861314 72.1857648,157.391727 62.911156,148.301703 C82.4194851,128.360097 101.956588,108.447689 121.551237,88.593674 C101.63049,68.4184915 82.0070671,47.9416058 62,27.863747 Z" id="Path" fill="#0EA1FF"></path>
            <path d="M39,49.0481088 C45.0871614,43.0341739 51.1231701,36.9824154 57.2359078,31 C76.3733804,50.1954214 95.747434,69.1702057 115,88.2521566 C95.9328622,107.138686 76.8849066,126.044127 57.8881037,145 C51.7370015,139.080624 45.7905098,132.946914 39.6074373,127.059058 C52.6129901,114.142336 65.6377251,101.244526 78.7008245,88.3845388 C65.4203264,75.3165229 52.3380448,62.0530856 39,49.0481088 Z" id="Path" fill-opacity="0.738800262" fill="#BE200D"></path>
            <path d="M33.6457889,54.4372855 C34.484373,53.5623625 35.3613656,52.7124373 36.3535835,52 C41.109828,56.6933369 45.8852768,61.3616759 50.6863311,66.0112666 C48.0745575,69.5484552 45.6868332,73.3168735 44.4449605,77.5540005 C41.1226309,88.1030719 43.523158,100.277 51,108.626265 C46.1285302,113.432092 41.1994477,118.181674 36.3343793,123 C24.0308774,111.438518 12.2458893,99.3208344 0,87.6906082 C0.51851387,86.6157028 1.55554161,85.9220139 2.37492155,85.0783382 C12.7836074,74.8542382 23.2243002,64.6613854 33.6457889,54.4372855 Z" id="Path" fill="#0EA1FF"></path>
        </g>
    </g>
</svg>